<?xml version="1.0" encoding="utf-8"?>
<!-- Generator: Adobe Illustrator 18.0.0, SVG Export Plug-In . SVG Version: 6.00 Build 0)  -->
<!DOCTYPE svg PUBLIC "-//W3C//DTD SVG 1.1//EN" "http://www.w3.org/Graphics/SVG/1.1/DTD/svg11.dtd">
<svg version="1.1" id="Capa_1" xmlns="http://www.w3.org/2000/svg" xmlns:xlink="http://www.w3.org/1999/xlink" x="0px" y="0px"
	 viewBox="0 0 44.2 44.2" enable-background="new 0 0 44.2 44.2" xml:space="preserve">
<g>
	<g>
		<g>
			<path fill="#FFFFFF" d="M15.5,29.5c-0.2,0-0.4-0.1-0.5-0.2c-0.3-0.3-0.3-0.8,0-1.1L28.2,15c0.3-0.3,0.8-0.3,1.1,0s0.3,0.8,0,1.1
				L16.1,29.2C15.9,29.4,15.7,29.5,15.5,29.5z"/>
		</g>
		<g>
			<path fill="#FFFFFF" d="M28.7,29.5c-0.2,0-0.4-0.1-0.5-0.2L15,16.1c-0.3-0.3-0.3-0.8,0-1.1s0.8-0.3,1.1,0l13.2,13.2
				c0.3,0.3,0.3,0.8,0,1.1C29.1,29.4,28.9,29.5,28.7,29.5z"/>
		</g>
		<path fill="#FFFFFF" d="M22.1,44.2C9.9,44.2,0,34.3,0,22.1C0,9.9,9.9,0,22.1,0s22.1,9.9,22.1,22.1S34.3,44.2,22.1,44.2z M22.1,1.5
			c-11.4,0-20.6,9.2-20.6,20.6s9.2,20.6,20.6,20.6s20.6-9.2,20.6-20.6S33.5,1.5,22.1,1.5z"/>
	</g>
</g>
</svg>
